<mxfile host="app.diagrams.net" modified="2021-01-14T09:15:24.961Z" agent="5.0 (X11; Linux x86_64) AppleWebKit/537.36 (KHTML, like Gecko) Chrome/87.0.4280.88 Safari/537.36" etag="2BXUB9CmB6jBO5F7jnyj" version="14.1.4" type="github" pages="2">
  <diagram id="C5RBs43oDa-KdzZeNtuy" name="中心化多节点框架">
    <mxGraphModel dx="3649" dy="1134" grid="1" gridSize="10" guides="1" tooltips="1" connect="1" arrows="1" fold="1" page="1" pageScale="1" pageWidth="827" pageHeight="1169" math="0" shadow="0">
      <root>
        <mxCell id="WIyWlLk6GJQsqaUBKTNV-0" />
        <mxCell id="WIyWlLk6GJQsqaUBKTNV-1" parent="WIyWlLk6GJQsqaUBKTNV-0" />
        <mxCell id="assgc5ORYBeyphlehf6V-12" value="" style="rounded=0;whiteSpace=wrap;html=1;dashed=1;" vertex="1" parent="WIyWlLk6GJQsqaUBKTNV-1">
          <mxGeometry x="-1238" y="360" width="318" height="560" as="geometry" />
        </mxCell>
        <mxCell id="assgc5ORYBeyphlehf6V-10" value="" style="rounded=0;whiteSpace=wrap;html=1;dashed=1;" vertex="1" parent="WIyWlLk6GJQsqaUBKTNV-1">
          <mxGeometry x="-1610" y="360" width="330" height="560" as="geometry" />
        </mxCell>
        <mxCell id="assgc5ORYBeyphlehf6V-18" style="edgeStyle=orthogonalEdgeStyle;rounded=0;orthogonalLoop=1;jettySize=auto;html=1;exitX=0.5;exitY=1;exitDx=0;exitDy=0;entryX=0.5;entryY=0;entryDx=0;entryDy=0;" edge="1" parent="WIyWlLk6GJQsqaUBKTNV-1" source="R8E4BzZ7WTUY2qazXX4Z-3" target="R8E4BzZ7WTUY2qazXX4Z-15">
          <mxGeometry relative="1" as="geometry" />
        </mxCell>
        <mxCell id="R8E4BzZ7WTUY2qazXX4Z-3" value="启动" style="rounded=1;whiteSpace=wrap;html=1;fontSize=12;" vertex="1" parent="WIyWlLk6GJQsqaUBKTNV-1">
          <mxGeometry x="-1320" width="120" height="40" as="geometry" />
        </mxCell>
        <mxCell id="assgc5ORYBeyphlehf6V-19" style="edgeStyle=orthogonalEdgeStyle;rounded=0;orthogonalLoop=1;jettySize=auto;html=1;exitX=0.5;exitY=1;exitDx=0;exitDy=0;dashed=1;" edge="1" parent="WIyWlLk6GJQsqaUBKTNV-1" source="R8E4BzZ7WTUY2qazXX4Z-15" target="R8E4BzZ7WTUY2qazXX4Z-32">
          <mxGeometry relative="1" as="geometry" />
        </mxCell>
        <mxCell id="R8E4BzZ7WTUY2qazXX4Z-15" value="&lt;p style=&quot;font-size: 12px&quot;&gt;加載系统节点配置&lt;/p&gt;" style="rounded=0;whiteSpace=wrap;html=1;fontSize=12;" vertex="1" parent="WIyWlLk6GJQsqaUBKTNV-1">
          <mxGeometry x="-1320" y="59.99999999999994" width="120" height="40" as="geometry" />
        </mxCell>
        <mxCell id="assgc5ORYBeyphlehf6V-20" style="edgeStyle=orthogonalEdgeStyle;rounded=0;orthogonalLoop=1;jettySize=auto;html=1;exitX=0.5;exitY=1;exitDx=0;exitDy=0;entryX=0.5;entryY=0;entryDx=0;entryDy=0;" edge="1" parent="WIyWlLk6GJQsqaUBKTNV-1" source="R8E4BzZ7WTUY2qazXX4Z-32" target="R8E4BzZ7WTUY2qazXX4Z-33">
          <mxGeometry relative="1" as="geometry" />
        </mxCell>
        <mxCell id="R8E4BzZ7WTUY2qazXX4Z-32" value="&lt;p style=&quot;font-size: 12px&quot;&gt;加載本节点配置&lt;/p&gt;" style="rounded=0;whiteSpace=wrap;html=1;fontSize=12;" vertex="1" parent="WIyWlLk6GJQsqaUBKTNV-1">
          <mxGeometry x="-1320" y="119.99999999999994" width="120" height="40" as="geometry" />
        </mxCell>
        <mxCell id="assgc5ORYBeyphlehf6V-21" style="edgeStyle=orthogonalEdgeStyle;rounded=0;orthogonalLoop=1;jettySize=auto;html=1;exitX=0.5;exitY=1;exitDx=0;exitDy=0;entryX=0.5;entryY=0;entryDx=0;entryDy=0;" edge="1" parent="WIyWlLk6GJQsqaUBKTNV-1" source="R8E4BzZ7WTUY2qazXX4Z-33" target="R8E4BzZ7WTUY2qazXX4Z-34">
          <mxGeometry relative="1" as="geometry" />
        </mxCell>
        <mxCell id="R8E4BzZ7WTUY2qazXX4Z-33" value="&lt;p style=&quot;font-size: 12px&quot;&gt;加載模块配置&lt;/p&gt;" style="rounded=0;whiteSpace=wrap;html=1;fontSize=12;" vertex="1" parent="WIyWlLk6GJQsqaUBKTNV-1">
          <mxGeometry x="-1320" y="179.99999999999994" width="120" height="40" as="geometry" />
        </mxCell>
        <mxCell id="assgc5ORYBeyphlehf6V-22" style="edgeStyle=orthogonalEdgeStyle;rounded=0;orthogonalLoop=1;jettySize=auto;html=1;exitX=0.5;exitY=1;exitDx=0;exitDy=0;" edge="1" parent="WIyWlLk6GJQsqaUBKTNV-1" source="R8E4BzZ7WTUY2qazXX4Z-34" target="R8E4BzZ7WTUY2qazXX4Z-35">
          <mxGeometry relative="1" as="geometry" />
        </mxCell>
        <mxCell id="R8E4BzZ7WTUY2qazXX4Z-34" value="&lt;p style=&quot;font-size: 12px&quot;&gt;生成订阅与发布表单&lt;/p&gt;" style="rounded=0;whiteSpace=wrap;html=1;fontSize=12;" vertex="1" parent="WIyWlLk6GJQsqaUBKTNV-1">
          <mxGeometry x="-1320" y="239.99999999999994" width="120" height="40" as="geometry" />
        </mxCell>
        <mxCell id="assgc5ORYBeyphlehf6V-23" style="edgeStyle=orthogonalEdgeStyle;rounded=0;orthogonalLoop=1;jettySize=auto;html=1;exitX=0.5;exitY=1;exitDx=0;exitDy=0;entryX=0.5;entryY=0;entryDx=0;entryDy=0;" edge="1" parent="WIyWlLk6GJQsqaUBKTNV-1" source="R8E4BzZ7WTUY2qazXX4Z-35" target="R8E4BzZ7WTUY2qazXX4Z-36">
          <mxGeometry relative="1" as="geometry">
            <mxPoint x="-1270" y="340" as="sourcePoint" />
            <Array as="points">
              <mxPoint x="-1260" y="370" />
              <mxPoint x="-1350" y="370" />
            </Array>
          </mxGeometry>
        </mxCell>
        <mxCell id="assgc5ORYBeyphlehf6V-24" style="edgeStyle=orthogonalEdgeStyle;rounded=0;orthogonalLoop=1;jettySize=auto;html=1;exitX=0.5;exitY=1;exitDx=0;exitDy=0;entryX=0.5;entryY=0;entryDx=0;entryDy=0;" edge="1" parent="WIyWlLk6GJQsqaUBKTNV-1" source="R8E4BzZ7WTUY2qazXX4Z-35" target="assgc5ORYBeyphlehf6V-1">
          <mxGeometry relative="1" as="geometry">
            <mxPoint x="-1248" y="340" as="sourcePoint" />
            <Array as="points">
              <mxPoint x="-1260" y="370" />
              <mxPoint x="-1168" y="370" />
            </Array>
          </mxGeometry>
        </mxCell>
        <mxCell id="R8E4BzZ7WTUY2qazXX4Z-35" value="&lt;p style=&quot;font-size: 12px&quot;&gt;创建节点&lt;/p&gt;" style="rounded=0;whiteSpace=wrap;html=1;fontSize=12;" vertex="1" parent="WIyWlLk6GJQsqaUBKTNV-1">
          <mxGeometry x="-1320" y="299.99999999999994" width="120" height="40" as="geometry" />
        </mxCell>
        <mxCell id="assgc5ORYBeyphlehf6V-0" style="edgeStyle=orthogonalEdgeStyle;rounded=0;orthogonalLoop=1;jettySize=auto;html=1;exitX=1;exitY=0.5;exitDx=0;exitDy=0;entryX=0;entryY=0.5;entryDx=0;entryDy=0;dashed=1;" edge="1" parent="WIyWlLk6GJQsqaUBKTNV-1" source="assgc5ORYBeyphlehf6V-1" target="assgc5ORYBeyphlehf6V-2">
          <mxGeometry relative="1" as="geometry" />
        </mxCell>
        <mxCell id="assgc5ORYBeyphlehf6V-33" style="edgeStyle=orthogonalEdgeStyle;rounded=0;orthogonalLoop=1;jettySize=auto;html=1;exitX=0.5;exitY=1;exitDx=0;exitDy=0;entryX=0.5;entryY=0;entryDx=0;entryDy=0;" edge="1" parent="WIyWlLk6GJQsqaUBKTNV-1" source="assgc5ORYBeyphlehf6V-1" target="assgc5ORYBeyphlehf6V-5">
          <mxGeometry relative="1" as="geometry" />
        </mxCell>
        <mxCell id="assgc5ORYBeyphlehf6V-1" value="&lt;p style=&quot;font-size: 12px&quot;&gt;创建Server&lt;/p&gt;" style="rounded=0;whiteSpace=wrap;html=1;fontSize=12;" vertex="1" parent="WIyWlLk6GJQsqaUBKTNV-1">
          <mxGeometry x="-1228" y="400" width="120" height="40" as="geometry" />
        </mxCell>
        <mxCell id="assgc5ORYBeyphlehf6V-36" style="edgeStyle=orthogonalEdgeStyle;rounded=0;orthogonalLoop=1;jettySize=auto;html=1;exitX=0.5;exitY=1;exitDx=0;exitDy=0;entryX=0.5;entryY=0;entryDx=0;entryDy=0;" edge="1" parent="WIyWlLk6GJQsqaUBKTNV-1" source="assgc5ORYBeyphlehf6V-2" target="assgc5ORYBeyphlehf6V-6">
          <mxGeometry relative="1" as="geometry" />
        </mxCell>
        <mxCell id="assgc5ORYBeyphlehf6V-2" value="&lt;p style=&quot;font-size: 12px&quot;&gt;创建Client&lt;/p&gt;" style="rounded=0;whiteSpace=wrap;html=1;fontSize=12;" vertex="1" parent="WIyWlLk6GJQsqaUBKTNV-1">
          <mxGeometry x="-1068" y="400" width="120" height="40" as="geometry" />
        </mxCell>
        <mxCell id="assgc5ORYBeyphlehf6V-35" style="edgeStyle=orthogonalEdgeStyle;rounded=0;orthogonalLoop=1;jettySize=auto;html=1;exitX=0.5;exitY=1;exitDx=0;exitDy=0;entryX=0.5;entryY=0;entryDx=0;entryDy=0;" edge="1" parent="WIyWlLk6GJQsqaUBKTNV-1" source="assgc5ORYBeyphlehf6V-3" target="assgc5ORYBeyphlehf6V-7">
          <mxGeometry relative="1" as="geometry" />
        </mxCell>
        <mxCell id="assgc5ORYBeyphlehf6V-42" style="edgeStyle=orthogonalEdgeStyle;rounded=0;orthogonalLoop=1;jettySize=auto;html=1;exitX=1;exitY=0.5;exitDx=0;exitDy=0;entryX=1;entryY=0.5;entryDx=0;entryDy=0;" edge="1" parent="WIyWlLk6GJQsqaUBKTNV-1" source="assgc5ORYBeyphlehf6V-3" target="assgc5ORYBeyphlehf6V-5">
          <mxGeometry relative="1" as="geometry" />
        </mxCell>
        <mxCell id="assgc5ORYBeyphlehf6V-3" value="等待建立连接" style="rhombus;whiteSpace=wrap;html=1;fontSize=12;" vertex="1" parent="WIyWlLk6GJQsqaUBKTNV-1">
          <mxGeometry x="-1228" y="540" width="120" height="40" as="geometry" />
        </mxCell>
        <mxCell id="assgc5ORYBeyphlehf6V-38" style="edgeStyle=orthogonalEdgeStyle;rounded=0;orthogonalLoop=1;jettySize=auto;html=1;exitX=0.5;exitY=1;exitDx=0;exitDy=0;entryX=0.5;entryY=0;entryDx=0;entryDy=0;" edge="1" parent="WIyWlLk6GJQsqaUBKTNV-1" source="assgc5ORYBeyphlehf6V-4" target="assgc5ORYBeyphlehf6V-8">
          <mxGeometry relative="1" as="geometry" />
        </mxCell>
        <mxCell id="assgc5ORYBeyphlehf6V-43" style="edgeStyle=orthogonalEdgeStyle;rounded=0;orthogonalLoop=1;jettySize=auto;html=1;exitX=1;exitY=0.5;exitDx=0;exitDy=0;entryX=1;entryY=0.5;entryDx=0;entryDy=0;" edge="1" parent="WIyWlLk6GJQsqaUBKTNV-1" source="assgc5ORYBeyphlehf6V-4" target="assgc5ORYBeyphlehf6V-6">
          <mxGeometry relative="1" as="geometry" />
        </mxCell>
        <mxCell id="assgc5ORYBeyphlehf6V-4" value="等待建立连接" style="rhombus;whiteSpace=wrap;html=1;fontSize=12;" vertex="1" parent="WIyWlLk6GJQsqaUBKTNV-1">
          <mxGeometry x="-1068" y="540" width="120" height="40" as="geometry" />
        </mxCell>
        <mxCell id="assgc5ORYBeyphlehf6V-34" style="edgeStyle=orthogonalEdgeStyle;rounded=0;orthogonalLoop=1;jettySize=auto;html=1;exitX=0.5;exitY=1;exitDx=0;exitDy=0;entryX=0.5;entryY=0;entryDx=0;entryDy=0;" edge="1" parent="WIyWlLk6GJQsqaUBKTNV-1" source="assgc5ORYBeyphlehf6V-5" target="assgc5ORYBeyphlehf6V-3">
          <mxGeometry relative="1" as="geometry" />
        </mxCell>
        <mxCell id="assgc5ORYBeyphlehf6V-5" value="&lt;p style=&quot;font-size: 12px&quot;&gt;监听端口，建立连接&lt;/p&gt;" style="rounded=0;whiteSpace=wrap;html=1;fontSize=12;" vertex="1" parent="WIyWlLk6GJQsqaUBKTNV-1">
          <mxGeometry x="-1228" y="465" width="120" height="40" as="geometry" />
        </mxCell>
        <mxCell id="assgc5ORYBeyphlehf6V-37" style="edgeStyle=orthogonalEdgeStyle;rounded=0;orthogonalLoop=1;jettySize=auto;html=1;exitX=0.5;exitY=1;exitDx=0;exitDy=0;entryX=0.5;entryY=0;entryDx=0;entryDy=0;" edge="1" parent="WIyWlLk6GJQsqaUBKTNV-1" source="assgc5ORYBeyphlehf6V-6" target="assgc5ORYBeyphlehf6V-4">
          <mxGeometry relative="1" as="geometry" />
        </mxCell>
        <mxCell id="assgc5ORYBeyphlehf6V-6" value="&lt;p style=&quot;font-size: 12px&quot;&gt;请求节点，建立连接&lt;/p&gt;" style="rounded=0;whiteSpace=wrap;html=1;fontSize=12;" vertex="1" parent="WIyWlLk6GJQsqaUBKTNV-1">
          <mxGeometry x="-1068" y="465" width="120" height="40" as="geometry" />
        </mxCell>
        <mxCell id="assgc5ORYBeyphlehf6V-50" style="edgeStyle=orthogonalEdgeStyle;rounded=0;jumpStyle=none;jumpSize=22;orthogonalLoop=1;jettySize=auto;html=1;exitX=0.5;exitY=1;exitDx=0;exitDy=0;entryX=0.5;entryY=0;entryDx=0;entryDy=0;" edge="1" parent="WIyWlLk6GJQsqaUBKTNV-1" source="assgc5ORYBeyphlehf6V-7" target="assgc5ORYBeyphlehf6V-9">
          <mxGeometry relative="1" as="geometry" />
        </mxCell>
        <mxCell id="assgc5ORYBeyphlehf6V-7" value="接收订阅表单" style="rounded=0;whiteSpace=wrap;html=1;fontSize=12;" vertex="1" parent="WIyWlLk6GJQsqaUBKTNV-1">
          <mxGeometry x="-1228" y="600" width="120" height="40" as="geometry" />
        </mxCell>
        <mxCell id="assgc5ORYBeyphlehf6V-49" style="edgeStyle=orthogonalEdgeStyle;rounded=0;orthogonalLoop=1;jettySize=auto;html=1;exitX=0.5;exitY=1;exitDx=0;exitDy=0;entryX=1;entryY=0.5;entryDx=0;entryDy=0;jumpStyle=none;jumpSize=22;fillColor=#e51400;strokeColor=#B20000;" edge="1" parent="WIyWlLk6GJQsqaUBKTNV-1" source="assgc5ORYBeyphlehf6V-8" target="R8E4BzZ7WTUY2qazXX4Z-43">
          <mxGeometry relative="1" as="geometry">
            <Array as="points">
              <mxPoint x="-1008" y="650" />
              <mxPoint x="-1270" y="650" />
              <mxPoint x="-1270" y="620" />
            </Array>
          </mxGeometry>
        </mxCell>
        <mxCell id="assgc5ORYBeyphlehf6V-8" value="&lt;p style=&quot;font-size: 12px&quot;&gt;发送订阅表单&lt;br&gt;&lt;/p&gt;" style="rounded=0;whiteSpace=wrap;html=1;fontSize=12;" vertex="1" parent="WIyWlLk6GJQsqaUBKTNV-1">
          <mxGeometry x="-1068" y="600" width="120" height="40" as="geometry" />
        </mxCell>
        <mxCell id="assgc5ORYBeyphlehf6V-55" style="edgeStyle=orthogonalEdgeStyle;rounded=0;jumpStyle=none;jumpSize=22;orthogonalLoop=1;jettySize=auto;html=1;exitX=1;exitY=0.5;exitDx=0;exitDy=0;dashed=1;" edge="1" parent="WIyWlLk6GJQsqaUBKTNV-1" source="assgc5ORYBeyphlehf6V-9" target="assgc5ORYBeyphlehf6V-54">
          <mxGeometry relative="1" as="geometry" />
        </mxCell>
        <mxCell id="assgc5ORYBeyphlehf6V-9" value="&lt;p style=&quot;font-size: 12px&quot;&gt;比对订阅与发布表单&lt;/p&gt;" style="rounded=0;whiteSpace=wrap;html=1;fontSize=12;" vertex="1" parent="WIyWlLk6GJQsqaUBKTNV-1">
          <mxGeometry x="-1228" y="670" width="120" height="40" as="geometry" />
        </mxCell>
        <mxCell id="assgc5ORYBeyphlehf6V-11" value="节点一" style="text;html=1;strokeColor=none;fillColor=none;align=center;verticalAlign=middle;whiteSpace=wrap;rounded=0;dashed=1;" vertex="1" parent="WIyWlLk6GJQsqaUBKTNV-1">
          <mxGeometry x="-1610" y="360" width="40" height="20" as="geometry" />
        </mxCell>
        <mxCell id="assgc5ORYBeyphlehf6V-13" value="节点二" style="text;html=1;strokeColor=none;fillColor=none;align=center;verticalAlign=middle;whiteSpace=wrap;rounded=0;dashed=1;" vertex="1" parent="WIyWlLk6GJQsqaUBKTNV-1">
          <mxGeometry x="-960" y="360" width="40" height="20" as="geometry" />
        </mxCell>
        <mxCell id="assgc5ORYBeyphlehf6V-25" style="edgeStyle=orthogonalEdgeStyle;rounded=0;orthogonalLoop=1;jettySize=auto;html=1;exitX=0.5;exitY=1;exitDx=0;exitDy=0;entryX=0.5;entryY=0;entryDx=0;entryDy=0;" edge="1" parent="WIyWlLk6GJQsqaUBKTNV-1" source="R8E4BzZ7WTUY2qazXX4Z-36" target="R8E4BzZ7WTUY2qazXX4Z-40">
          <mxGeometry relative="1" as="geometry" />
        </mxCell>
        <mxCell id="R8E4BzZ7WTUY2qazXX4Z-36" value="&lt;p style=&quot;font-size: 12px&quot;&gt;创建Server&lt;/p&gt;" style="rounded=0;whiteSpace=wrap;html=1;fontSize=12;direction=east;" vertex="1" parent="WIyWlLk6GJQsqaUBKTNV-1">
          <mxGeometry x="-1410" y="400" width="120" height="40" as="geometry" />
        </mxCell>
        <mxCell id="assgc5ORYBeyphlehf6V-28" style="edgeStyle=orthogonalEdgeStyle;rounded=0;orthogonalLoop=1;jettySize=auto;html=1;exitX=0.5;exitY=1;exitDx=0;exitDy=0;" edge="1" parent="WIyWlLk6GJQsqaUBKTNV-1" source="R8E4BzZ7WTUY2qazXX4Z-37" target="R8E4BzZ7WTUY2qazXX4Z-42">
          <mxGeometry relative="1" as="geometry" />
        </mxCell>
        <mxCell id="R8E4BzZ7WTUY2qazXX4Z-37" value="&lt;p style=&quot;font-size: 12px&quot;&gt;创建Client&lt;/p&gt;" style="rounded=0;whiteSpace=wrap;html=1;fontSize=12;direction=east;" vertex="1" parent="WIyWlLk6GJQsqaUBKTNV-1">
          <mxGeometry x="-1580" y="400" width="120" height="40" as="geometry" />
        </mxCell>
        <mxCell id="R8E4BzZ7WTUY2qazXX4Z-41" style="edgeStyle=orthogonalEdgeStyle;rounded=0;orthogonalLoop=1;jettySize=auto;html=1;exitX=0;exitY=0.5;exitDx=0;exitDy=0;entryX=1;entryY=0.5;entryDx=0;entryDy=0;dashed=1;" edge="1" parent="WIyWlLk6GJQsqaUBKTNV-1" source="R8E4BzZ7WTUY2qazXX4Z-36" target="R8E4BzZ7WTUY2qazXX4Z-37">
          <mxGeometry x="-1609" y="401" as="geometry">
            <mxPoint x="-1459" y="411" as="sourcePoint" />
          </mxGeometry>
        </mxCell>
        <mxCell id="assgc5ORYBeyphlehf6V-27" style="edgeStyle=orthogonalEdgeStyle;rounded=0;orthogonalLoop=1;jettySize=auto;html=1;exitX=0.5;exitY=1;exitDx=0;exitDy=0;entryX=0.5;entryY=0;entryDx=0;entryDy=0;" edge="1" parent="WIyWlLk6GJQsqaUBKTNV-1" source="R8E4BzZ7WTUY2qazXX4Z-38" target="R8E4BzZ7WTUY2qazXX4Z-43">
          <mxGeometry relative="1" as="geometry" />
        </mxCell>
        <mxCell id="assgc5ORYBeyphlehf6V-40" style="edgeStyle=orthogonalEdgeStyle;rounded=0;orthogonalLoop=1;jettySize=auto;html=1;exitX=0;exitY=0.5;exitDx=0;exitDy=0;entryX=0;entryY=0.5;entryDx=0;entryDy=0;" edge="1" parent="WIyWlLk6GJQsqaUBKTNV-1" source="R8E4BzZ7WTUY2qazXX4Z-38" target="R8E4BzZ7WTUY2qazXX4Z-40">
          <mxGeometry relative="1" as="geometry" />
        </mxCell>
        <mxCell id="R8E4BzZ7WTUY2qazXX4Z-38" value="等待建立连接" style="rhombus;whiteSpace=wrap;html=1;fontSize=12;direction=east;" vertex="1" parent="WIyWlLk6GJQsqaUBKTNV-1">
          <mxGeometry x="-1410" y="540" width="120" height="40" as="geometry" />
        </mxCell>
        <mxCell id="assgc5ORYBeyphlehf6V-31" style="edgeStyle=orthogonalEdgeStyle;rounded=0;orthogonalLoop=1;jettySize=auto;html=1;exitX=0.5;exitY=1;exitDx=0;exitDy=0;entryX=0.5;entryY=0;entryDx=0;entryDy=0;" edge="1" parent="WIyWlLk6GJQsqaUBKTNV-1" source="R8E4BzZ7WTUY2qazXX4Z-39" target="R8E4BzZ7WTUY2qazXX4Z-44">
          <mxGeometry relative="1" as="geometry" />
        </mxCell>
        <mxCell id="assgc5ORYBeyphlehf6V-41" style="edgeStyle=orthogonalEdgeStyle;rounded=0;orthogonalLoop=1;jettySize=auto;html=1;exitX=0;exitY=0.5;exitDx=0;exitDy=0;entryX=0;entryY=0.5;entryDx=0;entryDy=0;" edge="1" parent="WIyWlLk6GJQsqaUBKTNV-1" source="R8E4BzZ7WTUY2qazXX4Z-39" target="R8E4BzZ7WTUY2qazXX4Z-42">
          <mxGeometry relative="1" as="geometry" />
        </mxCell>
        <mxCell id="R8E4BzZ7WTUY2qazXX4Z-39" value="等待建立连接" style="rhombus;whiteSpace=wrap;html=1;fontSize=12;direction=east;" vertex="1" parent="WIyWlLk6GJQsqaUBKTNV-1">
          <mxGeometry x="-1580" y="540" width="120" height="40" as="geometry" />
        </mxCell>
        <mxCell id="assgc5ORYBeyphlehf6V-26" style="edgeStyle=orthogonalEdgeStyle;rounded=0;orthogonalLoop=1;jettySize=auto;html=1;exitX=0.5;exitY=1;exitDx=0;exitDy=0;entryX=0.5;entryY=0;entryDx=0;entryDy=0;" edge="1" parent="WIyWlLk6GJQsqaUBKTNV-1" source="R8E4BzZ7WTUY2qazXX4Z-40" target="R8E4BzZ7WTUY2qazXX4Z-38">
          <mxGeometry relative="1" as="geometry" />
        </mxCell>
        <mxCell id="R8E4BzZ7WTUY2qazXX4Z-40" value="&lt;p style=&quot;font-size: 12px&quot;&gt;监听端口，建立连接&lt;/p&gt;" style="rounded=0;whiteSpace=wrap;html=1;fontSize=12;direction=east;" vertex="1" parent="WIyWlLk6GJQsqaUBKTNV-1">
          <mxGeometry x="-1410" y="465" width="120" height="40" as="geometry" />
        </mxCell>
        <mxCell id="assgc5ORYBeyphlehf6V-29" style="edgeStyle=orthogonalEdgeStyle;rounded=0;orthogonalLoop=1;jettySize=auto;html=1;exitX=0.5;exitY=1;exitDx=0;exitDy=0;entryX=0.5;entryY=0;entryDx=0;entryDy=0;" edge="1" parent="WIyWlLk6GJQsqaUBKTNV-1" source="R8E4BzZ7WTUY2qazXX4Z-42" target="R8E4BzZ7WTUY2qazXX4Z-39">
          <mxGeometry relative="1" as="geometry" />
        </mxCell>
        <mxCell id="R8E4BzZ7WTUY2qazXX4Z-42" value="&lt;p style=&quot;font-size: 12px&quot;&gt;请求节点，建立连接&lt;/p&gt;" style="rounded=0;whiteSpace=wrap;html=1;fontSize=12;direction=east;" vertex="1" parent="WIyWlLk6GJQsqaUBKTNV-1">
          <mxGeometry x="-1580" y="465" width="120" height="40" as="geometry" />
        </mxCell>
        <mxCell id="assgc5ORYBeyphlehf6V-51" style="edgeStyle=orthogonalEdgeStyle;rounded=0;jumpStyle=none;jumpSize=22;orthogonalLoop=1;jettySize=auto;html=1;exitX=0.5;exitY=1;exitDx=0;exitDy=0;entryX=0.5;entryY=0;entryDx=0;entryDy=0;" edge="1" parent="WIyWlLk6GJQsqaUBKTNV-1" source="R8E4BzZ7WTUY2qazXX4Z-43" target="R8E4BzZ7WTUY2qazXX4Z-45">
          <mxGeometry relative="1" as="geometry" />
        </mxCell>
        <mxCell id="R8E4BzZ7WTUY2qazXX4Z-43" value="&lt;p style=&quot;font-size: 12px&quot;&gt;接收订阅表单&lt;br&gt;&lt;/p&gt;" style="rounded=0;whiteSpace=wrap;html=1;fontSize=12;direction=east;" vertex="1" parent="WIyWlLk6GJQsqaUBKTNV-1">
          <mxGeometry x="-1410" y="600" width="120" height="40" as="geometry" />
        </mxCell>
        <mxCell id="assgc5ORYBeyphlehf6V-48" style="edgeStyle=orthogonalEdgeStyle;rounded=0;orthogonalLoop=1;jettySize=auto;html=1;exitX=0.5;exitY=1;exitDx=0;exitDy=0;entryX=0;entryY=0.5;entryDx=0;entryDy=0;fillColor=#e51400;strokeColor=#B20000;" edge="1" parent="WIyWlLk6GJQsqaUBKTNV-1" source="R8E4BzZ7WTUY2qazXX4Z-44" target="assgc5ORYBeyphlehf6V-7">
          <mxGeometry relative="1" as="geometry">
            <Array as="points">
              <mxPoint x="-1520" y="660" />
              <mxPoint x="-1250" y="660" />
              <mxPoint x="-1250" y="620" />
            </Array>
          </mxGeometry>
        </mxCell>
        <mxCell id="R8E4BzZ7WTUY2qazXX4Z-44" value="发送订阅表单" style="rounded=0;whiteSpace=wrap;html=1;fontSize=12;direction=east;" vertex="1" parent="WIyWlLk6GJQsqaUBKTNV-1">
          <mxGeometry x="-1580" y="600" width="120" height="40" as="geometry" />
        </mxCell>
        <mxCell id="assgc5ORYBeyphlehf6V-53" style="edgeStyle=orthogonalEdgeStyle;rounded=0;jumpStyle=none;jumpSize=22;orthogonalLoop=1;jettySize=auto;html=1;exitX=0;exitY=0.5;exitDx=0;exitDy=0;entryX=1;entryY=0.5;entryDx=0;entryDy=0;dashed=1;" edge="1" parent="WIyWlLk6GJQsqaUBKTNV-1" source="R8E4BzZ7WTUY2qazXX4Z-45" target="assgc5ORYBeyphlehf6V-52">
          <mxGeometry relative="1" as="geometry" />
        </mxCell>
        <mxCell id="R8E4BzZ7WTUY2qazXX4Z-45" value="&lt;p style=&quot;font-size: 12px&quot;&gt;比对订阅与发布表单&lt;/p&gt;" style="rounded=0;whiteSpace=wrap;html=1;fontSize=12;direction=east;" vertex="1" parent="WIyWlLk6GJQsqaUBKTNV-1">
          <mxGeometry x="-1410" y="670" width="120" height="40" as="geometry" />
        </mxCell>
        <mxCell id="assgc5ORYBeyphlehf6V-65" style="edgeStyle=orthogonalEdgeStyle;rounded=0;jumpStyle=none;jumpSize=22;orthogonalLoop=1;jettySize=auto;html=1;exitX=0.5;exitY=1;exitDx=0;exitDy=0;entryX=0.5;entryY=0;entryDx=0;entryDy=0;" edge="1" parent="WIyWlLk6GJQsqaUBKTNV-1" source="assgc5ORYBeyphlehf6V-52" target="assgc5ORYBeyphlehf6V-56">
          <mxGeometry relative="1" as="geometry" />
        </mxCell>
        <mxCell id="assgc5ORYBeyphlehf6V-52" value="&lt;p style=&quot;font-size: 12px&quot;&gt;更新发布表单&lt;/p&gt;" style="rounded=0;whiteSpace=wrap;html=1;fontSize=12;direction=east;" vertex="1" parent="WIyWlLk6GJQsqaUBKTNV-1">
          <mxGeometry x="-1580" y="670" width="120" height="40" as="geometry" />
        </mxCell>
        <mxCell id="assgc5ORYBeyphlehf6V-62" style="edgeStyle=orthogonalEdgeStyle;rounded=0;jumpStyle=none;jumpSize=22;orthogonalLoop=1;jettySize=auto;html=1;exitX=0.5;exitY=1;exitDx=0;exitDy=0;entryX=0.5;entryY=0;entryDx=0;entryDy=0;" edge="1" parent="WIyWlLk6GJQsqaUBKTNV-1" source="assgc5ORYBeyphlehf6V-54" target="assgc5ORYBeyphlehf6V-59">
          <mxGeometry relative="1" as="geometry" />
        </mxCell>
        <mxCell id="assgc5ORYBeyphlehf6V-54" value="&lt;p style=&quot;font-size: 12px&quot;&gt;更新发布表单&lt;/p&gt;" style="rounded=0;whiteSpace=wrap;html=1;fontSize=12;direction=east;" vertex="1" parent="WIyWlLk6GJQsqaUBKTNV-1">
          <mxGeometry x="-1068" y="670" width="120" height="40" as="geometry" />
        </mxCell>
        <mxCell id="assgc5ORYBeyphlehf6V-67" style="edgeStyle=orthogonalEdgeStyle;rounded=0;jumpStyle=none;jumpSize=22;orthogonalLoop=1;jettySize=auto;html=1;exitX=0.5;exitY=1;exitDx=0;exitDy=0;entryX=0.5;entryY=0;entryDx=0;entryDy=0;" edge="1" parent="WIyWlLk6GJQsqaUBKTNV-1" source="assgc5ORYBeyphlehf6V-56" target="assgc5ORYBeyphlehf6V-57">
          <mxGeometry relative="1" as="geometry" />
        </mxCell>
        <mxCell id="assgc5ORYBeyphlehf6V-56" value="&lt;p style=&quot;font-size: 12px&quot;&gt;订阅发布表单(SHM)&lt;/p&gt;" style="rounded=0;whiteSpace=wrap;html=1;fontSize=12;direction=east;" vertex="1" parent="WIyWlLk6GJQsqaUBKTNV-1">
          <mxGeometry x="-1580" y="730" width="120" height="40" as="geometry" />
        </mxCell>
        <mxCell id="assgc5ORYBeyphlehf6V-68" style="edgeStyle=orthogonalEdgeStyle;rounded=0;jumpStyle=none;jumpSize=22;orthogonalLoop=1;jettySize=auto;html=1;exitX=0.5;exitY=1;exitDx=0;exitDy=0;entryX=0.5;entryY=0;entryDx=0;entryDy=0;" edge="1" parent="WIyWlLk6GJQsqaUBKTNV-1" source="assgc5ORYBeyphlehf6V-57" target="assgc5ORYBeyphlehf6V-58">
          <mxGeometry relative="1" as="geometry" />
        </mxCell>
        <mxCell id="assgc5ORYBeyphlehf6V-57" value="&lt;p style=&quot;font-size: 12px&quot;&gt;接收订阅数据(SHM)&lt;/p&gt;" style="rounded=0;whiteSpace=wrap;html=1;fontSize=12;direction=east;" vertex="1" parent="WIyWlLk6GJQsqaUBKTNV-1">
          <mxGeometry x="-1580" y="790" width="120" height="40" as="geometry" />
        </mxCell>
        <mxCell id="assgc5ORYBeyphlehf6V-71" style="edgeStyle=orthogonalEdgeStyle;rounded=0;jumpStyle=none;jumpSize=22;orthogonalLoop=1;jettySize=auto;html=1;exitX=0.5;exitY=1;exitDx=0;exitDy=0;entryX=0;entryY=0.5;entryDx=0;entryDy=0;fillColor=#e51400;strokeColor=#B20000;" edge="1" parent="WIyWlLk6GJQsqaUBKTNV-1" source="assgc5ORYBeyphlehf6V-58" target="assgc5ORYBeyphlehf6V-70">
          <mxGeometry relative="1" as="geometry">
            <Array as="points">
              <mxPoint x="-1520" y="910" />
              <mxPoint x="-1250" y="910" />
              <mxPoint x="-1250" y="750" />
            </Array>
          </mxGeometry>
        </mxCell>
        <mxCell id="assgc5ORYBeyphlehf6V-58" value="&lt;p style=&quot;font-size: 12px&quot;&gt;发布订阅数据(GRPC)&lt;/p&gt;" style="rounded=0;whiteSpace=wrap;html=1;fontSize=12;direction=east;" vertex="1" parent="WIyWlLk6GJQsqaUBKTNV-1">
          <mxGeometry x="-1580" y="850" width="120" height="40" as="geometry" />
        </mxCell>
        <mxCell id="assgc5ORYBeyphlehf6V-63" style="edgeStyle=orthogonalEdgeStyle;rounded=0;jumpStyle=none;jumpSize=22;orthogonalLoop=1;jettySize=auto;html=1;exitX=0.5;exitY=1;exitDx=0;exitDy=0;dashed=1;" edge="1" parent="WIyWlLk6GJQsqaUBKTNV-1" source="assgc5ORYBeyphlehf6V-59" target="assgc5ORYBeyphlehf6V-60">
          <mxGeometry relative="1" as="geometry" />
        </mxCell>
        <mxCell id="assgc5ORYBeyphlehf6V-59" value="&lt;p style=&quot;font-size: 12px&quot;&gt;订阅发布表单(SHM)&lt;/p&gt;" style="rounded=0;whiteSpace=wrap;html=1;fontSize=12;direction=east;" vertex="1" parent="WIyWlLk6GJQsqaUBKTNV-1">
          <mxGeometry x="-1068" y="730" width="120" height="40" as="geometry" />
        </mxCell>
        <mxCell id="assgc5ORYBeyphlehf6V-64" style="edgeStyle=orthogonalEdgeStyle;rounded=0;jumpStyle=none;jumpSize=22;orthogonalLoop=1;jettySize=auto;html=1;exitX=0.5;exitY=1;exitDx=0;exitDy=0;dashed=1;" edge="1" parent="WIyWlLk6GJQsqaUBKTNV-1" source="assgc5ORYBeyphlehf6V-60" target="assgc5ORYBeyphlehf6V-61">
          <mxGeometry relative="1" as="geometry" />
        </mxCell>
        <mxCell id="assgc5ORYBeyphlehf6V-60" value="&lt;p style=&quot;font-size: 12px&quot;&gt;接收订阅数据(SHM)&lt;/p&gt;" style="rounded=0;whiteSpace=wrap;html=1;fontSize=12;direction=east;" vertex="1" parent="WIyWlLk6GJQsqaUBKTNV-1">
          <mxGeometry x="-1068" y="790" width="120" height="40" as="geometry" />
        </mxCell>
        <mxCell id="assgc5ORYBeyphlehf6V-72" style="edgeStyle=orthogonalEdgeStyle;rounded=0;jumpStyle=none;jumpSize=22;orthogonalLoop=1;jettySize=auto;html=1;exitX=0.5;exitY=1;exitDx=0;exitDy=0;entryX=1;entryY=0.5;entryDx=0;entryDy=0;fillColor=#e51400;strokeColor=#B20000;" edge="1" parent="WIyWlLk6GJQsqaUBKTNV-1" source="assgc5ORYBeyphlehf6V-61" target="assgc5ORYBeyphlehf6V-69">
          <mxGeometry relative="1" as="geometry">
            <Array as="points">
              <mxPoint x="-1008" y="900" />
              <mxPoint x="-1270" y="900" />
              <mxPoint x="-1270" y="750" />
            </Array>
          </mxGeometry>
        </mxCell>
        <mxCell id="assgc5ORYBeyphlehf6V-61" value="&lt;p style=&quot;font-size: 12px&quot;&gt;发布订阅数据(GRPC)&lt;/p&gt;" style="rounded=0;whiteSpace=wrap;html=1;fontSize=12;direction=east;" vertex="1" parent="WIyWlLk6GJQsqaUBKTNV-1">
          <mxGeometry x="-1068" y="850" width="120" height="40" as="geometry" />
        </mxCell>
        <mxCell id="assgc5ORYBeyphlehf6V-75" style="edgeStyle=orthogonalEdgeStyle;rounded=0;jumpStyle=none;jumpSize=22;orthogonalLoop=1;jettySize=auto;html=1;exitX=0.5;exitY=1;exitDx=0;exitDy=0;entryX=0.5;entryY=0;entryDx=0;entryDy=0;" edge="1" parent="WIyWlLk6GJQsqaUBKTNV-1" source="assgc5ORYBeyphlehf6V-69" target="assgc5ORYBeyphlehf6V-73">
          <mxGeometry relative="1" as="geometry" />
        </mxCell>
        <mxCell id="assgc5ORYBeyphlehf6V-69" value="&lt;p style=&quot;font-size: 12px&quot;&gt;接收订阅数据(GRPC)&lt;/p&gt;" style="rounded=0;whiteSpace=wrap;html=1;fontSize=12;direction=east;" vertex="1" parent="WIyWlLk6GJQsqaUBKTNV-1">
          <mxGeometry x="-1410" y="730" width="120" height="40" as="geometry" />
        </mxCell>
        <mxCell id="assgc5ORYBeyphlehf6V-76" style="edgeStyle=orthogonalEdgeStyle;rounded=0;jumpStyle=none;jumpSize=22;orthogonalLoop=1;jettySize=auto;html=1;exitX=0.5;exitY=1;exitDx=0;exitDy=0;entryX=0.5;entryY=0;entryDx=0;entryDy=0;" edge="1" parent="WIyWlLk6GJQsqaUBKTNV-1" source="assgc5ORYBeyphlehf6V-70" target="assgc5ORYBeyphlehf6V-74">
          <mxGeometry relative="1" as="geometry" />
        </mxCell>
        <mxCell id="assgc5ORYBeyphlehf6V-70" value="&lt;p style=&quot;font-size: 12px&quot;&gt;接收订阅数据(GRPC)&lt;/p&gt;" style="rounded=0;whiteSpace=wrap;html=1;fontSize=12;direction=east;" vertex="1" parent="WIyWlLk6GJQsqaUBKTNV-1">
          <mxGeometry x="-1228" y="730" width="120" height="40" as="geometry" />
        </mxCell>
        <mxCell id="assgc5ORYBeyphlehf6V-79" style="edgeStyle=orthogonalEdgeStyle;rounded=0;jumpStyle=none;jumpSize=22;orthogonalLoop=1;jettySize=auto;html=1;exitX=0.5;exitY=1;exitDx=0;exitDy=0;" edge="1" parent="WIyWlLk6GJQsqaUBKTNV-1" source="assgc5ORYBeyphlehf6V-73">
          <mxGeometry relative="1" as="geometry">
            <mxPoint x="-1260" y="960" as="targetPoint" />
            <Array as="points">
              <mxPoint x="-1350" y="940" />
              <mxPoint x="-1260" y="940" />
            </Array>
          </mxGeometry>
        </mxCell>
        <mxCell id="assgc5ORYBeyphlehf6V-73" value="&lt;p style=&quot;font-size: 12px&quot;&gt;发布订阅数据(SHM)&lt;/p&gt;" style="rounded=0;whiteSpace=wrap;html=1;fontSize=12;direction=east;" vertex="1" parent="WIyWlLk6GJQsqaUBKTNV-1">
          <mxGeometry x="-1410" y="790" width="120" height="40" as="geometry" />
        </mxCell>
        <mxCell id="assgc5ORYBeyphlehf6V-78" style="edgeStyle=orthogonalEdgeStyle;rounded=0;jumpStyle=none;jumpSize=22;orthogonalLoop=1;jettySize=auto;html=1;exitX=0.5;exitY=1;exitDx=0;exitDy=0;" edge="1" parent="WIyWlLk6GJQsqaUBKTNV-1" source="assgc5ORYBeyphlehf6V-74" target="assgc5ORYBeyphlehf6V-77">
          <mxGeometry relative="1" as="geometry">
            <Array as="points">
              <mxPoint x="-1168" y="940" />
              <mxPoint x="-1260" y="940" />
            </Array>
          </mxGeometry>
        </mxCell>
        <mxCell id="assgc5ORYBeyphlehf6V-74" value="&lt;p style=&quot;font-size: 12px&quot;&gt;发布订阅数据(SHM)&lt;br&gt;&lt;/p&gt;" style="rounded=0;whiteSpace=wrap;html=1;fontSize=12;direction=east;" vertex="1" parent="WIyWlLk6GJQsqaUBKTNV-1">
          <mxGeometry x="-1228" y="790" width="120" height="40" as="geometry" />
        </mxCell>
        <mxCell id="assgc5ORYBeyphlehf6V-77" value="&lt;p style=&quot;font-size: 12px&quot;&gt;结束&lt;/p&gt;" style="rounded=0;whiteSpace=wrap;html=1;fontSize=12;direction=east;" vertex="1" parent="WIyWlLk6GJQsqaUBKTNV-1">
          <mxGeometry x="-1320" y="960" width="120" height="40" as="geometry" />
        </mxCell>
      </root>
    </mxGraphModel>
  </diagram>
  <diagram id="IFDG96gLUSh2HTU5egq1" name="线程调度优化">
    <mxGraphModel dx="3695" dy="1134" grid="1" gridSize="10" guides="1" tooltips="1" connect="1" arrows="1" fold="1" page="1" pageScale="1" pageWidth="850" pageHeight="1100" math="0" shadow="0">
      <root>
        <mxCell id="k_lEEs_AzscMaMH7izMv-0" />
        <mxCell id="k_lEEs_AzscMaMH7izMv-1" parent="k_lEEs_AzscMaMH7izMv-0" />
        <mxCell id="4I-U5rcCUOdrQFMzk5E--0" value="&lt;p style=&quot;font-size: 12px&quot;&gt;可采用某进程中，多个线程与多个CPU绑定，从而实现并行化运行&lt;/p&gt;" style="rounded=0;whiteSpace=wrap;html=1;fontSize=12;" vertex="1" parent="k_lEEs_AzscMaMH7izMv-1">
          <mxGeometry x="-1620" y="80" width="330" height="120" as="geometry" />
        </mxCell>
      </root>
    </mxGraphModel>
  </diagram>
</mxfile>
